<svg xmlns="http://www.w3.org/2000/svg" viewBox="0 0 64 64" width="64" height="64">
  <rect width="64" height="64" rx="12" fill="#6366f1"/>
  <path d="M16 20 C16 18 18 16 20 16 L44 16 C46 16 48 18 48 20 L48 36 C48 38 46 40 44 40 L20 40 C18 40 16 38 16 36 Z" fill="white"/>
  <circle cx="32" cy="28" r="6" fill="#6366f1"/>
  <path d="M16 32 L22 26 L28 32 L36 24 L48 36 L48 36 C48 38 46 40 44 40 L20 40 C18 40 16 38 16 36 Z" fill="white" opacity="0.8"/>
  <rect x="22" y="46" width="20" height="4" rx="2" fill="white"/>
</svg>